<svg id="blog" xmlns="http://www.w3.org/2000/svg" width="22.84" height="14.334" viewBox="0 0 22.84 14.334">
  <path id="Tracé_8" data-name="Tracé 8" d="M20.833,0H2.007C.9,0,0,.565,0,1.26V13.074c0,.695.9,1.26,2.007,1.26H20.833c1.107,0,2.007-.565,2.007-1.26V1.26C22.84.565,21.939,0,20.833,0ZM21.5,13.074c0,.232-.3.42-.669.42H2.007c-.369,0-.669-.188-.669-.42V4.2H21.5Zm0-9.714H1.338V1.26c0-.232.3-.42.669-.42H20.833c.369,0,.669.188.669.42Z" fill="#fff"/>
  <path id="Tracé_9" data-name="Tracé 9" d="M62.561,60h-.892a.775.775,0,0,0,0,1.535h.892a.775.775,0,0,0,0-1.535Z" transform="translate(-58.279 -56.93)" fill="#fff"/>
  <path id="Tracé_10" data-name="Tracé 10" d="M142.561,60h-.892a.775.775,0,0,0,0,1.535h.892a.775.775,0,0,0,0-1.535Z" transform="translate(-134.71 -56.93)" fill="#fff"/>
  <path id="Tracé_11" data-name="Tracé 11" d="M222.561,60h-.892a.775.775,0,0,0,0,1.535h.892a.775.775,0,0,0,0-1.535Z" transform="translate(-211.141 -56.93)" fill="#fff"/>
  <path id="Tracé_12" data-name="Tracé 12" d="M152.8,263.139c.032.006,1.133,0,1.64,0a.517.517,0,0,0,0-1.023h0c-.391,0-.811,0-1.114,0v-4.6a.45.45,0,1,0-.892,0v5.112A.511.511,0,0,0,152.8,263.139Z" transform="translate(-145.628 -251.629)" fill="#fff"/>
  <path id="Tracé_13" data-name="Tracé 13" d="M51.838,263.139H53.36a1.788,1.788,0,0,0,1.647-1.895,1.982,1.982,0,0,0-.7-1.541,1.846,1.846,0,0,0,.3-1.014A1.594,1.594,0,0,0,53.134,257h-1.3a.482.482,0,0,0-.446.512v5.116a.552.552,0,0,0,.131.363A.419.419,0,0,0,51.838,263.139Zm.446-5.116h.85a.672.672,0,0,1,0,1.331h-.85Zm0,2.358,1.076,0a.874.874,0,0,1,0,1.731l-1.076,0Z" transform="translate(-49.099 -251.628)" fill="#fff"/>
  <path id="Tracé_14" data-name="Tracé 14" d="M350.123,263.139c1.4,0,2.372-1.262,2.372-3.07a.482.482,0,0,0-.446-.512h-1.335a.516.516,0,0,0,0,1.023h.85c-.122.79-.543,1.535-1.441,1.535a2.066,2.066,0,0,1,0-4.093,1.618,1.618,0,0,1,1,.349.412.412,0,0,0,.619-.138.56.56,0,0,0-.12-.71,2.43,2.43,0,0,0-1.5-.525,3.1,3.1,0,0,0,0,6.139Z" transform="translate(-331.947 -251.628)" fill="#fff"/>
  <path id="Tracé_15" data-name="Tracé 15" d="M210.123,263.139a3.1,3.1,0,1,0-2.677-3.07A2.9,2.9,0,0,0,210.123,263.139Zm0-5.116a2.066,2.066,0,1,1-1.784,2.046A1.931,1.931,0,0,1,210.123,258.023Z" transform="translate(-198.192 -251.628)" fill="#fff"/>
</svg>
