<svg xmlns="http://www.w3.org/2000/svg" width="26.335" height="19.112" viewBox="0 0 26.335 19.112">
  <path id="facebook" d="M3.858,19.112h8.59V12.318H9.361v-2.24h3.086v-2.8c0-1.544,1.731-2.8,3.858-2.8h3.858v2.24H17.076c-.851,0-1.543.5-1.543,1.12v2.24h4.49l-.514,2.24H15.533v6.794h6.944c2.127,0,3.858-1.256,3.858-2.8V2.8c0-1.544-1.731-2.8-3.858-2.8H3.858C1.731,0,0,1.256,0,2.8V16.312C0,17.856,1.731,19.112,3.858,19.112ZM1.543,2.8c0-.926,1.038-1.68,2.315-1.68H22.477c1.276,0,2.315.754,2.315,1.68V16.312c0,.926-1.038,1.68-2.315,1.68h-5.4V13.438h3.74l1.029-4.479H17.076V7.839h4.629V3.359H16.3c-2.978,0-5.4,1.758-5.4,3.919v1.68H7.818v4.479H10.9v4.554H3.858c-1.276,0-2.315-.754-2.315-1.68Zm0,0" fill="#fff"/>
</svg>
