<svg id="instagram" xmlns="http://www.w3.org/2000/svg" width="22.544" height="22.544" viewBox="0 0 22.544 22.544">
  <path id="Tracé_4" data-name="Tracé 4" d="M16.44,0H6.1A6.109,6.109,0,0,0,0,6.1V16.441a6.109,6.109,0,0,0,6.1,6.1H16.44a6.109,6.109,0,0,0,6.1-6.1V6.1A6.109,6.109,0,0,0,16.44,0Zm4.781,16.441a4.786,4.786,0,0,1-4.781,4.781H6.1a4.786,4.786,0,0,1-4.781-4.781V6.1A4.786,4.786,0,0,1,6.1,1.322H16.44A4.786,4.786,0,0,1,21.221,6.1Zm0,0" transform="translate(0.001 0)" fill="#fff"/>
  <path id="Tracé_5" data-name="Tracé 5" d="M122.168,116a6.164,6.164,0,1,0,6.164,6.164A6.171,6.171,0,0,0,122.168,116Zm0,11.007a4.842,4.842,0,1,1,4.842-4.842A4.848,4.848,0,0,1,122.168,127.011Zm0,0" transform="translate(-110.896 -110.896)" fill="#fff"/>
  <path id="Tracé_6" data-name="Tracé 6" d="M359.8,66.285a1.822,1.822,0,1,0,1.822,1.821A1.823,1.823,0,0,0,359.8,66.285Zm0,2.321a.5.5,0,1,1,.5-.5A.5.5,0,0,1,359.8,68.606Zm0,0" transform="translate(-342.215 -63.367)" fill="#fff"/>
</svg>
