<svg id="twitter-social-logotype" xmlns="http://www.w3.org/2000/svg" width="21.692" height="24.877" viewBox="0 0 21.692 24.877">
  <path id="Tracé_7" data-name="Tracé 7" d="M10.846,0C4.856,0,0,5.569,0,12.439S4.856,24.877,10.846,24.877s10.846-5.569,10.846-12.439S16.836,0,10.846,0ZM17.4,9.122q.008.22.008.442c0,5.313-3.525,10.809-9.425,10.809a8.536,8.536,0,0,1-5.078-1.707.1.1,0,0,1-.032-.109.081.081,0,0,1,.085-.06,5.728,5.728,0,0,0,.774.052,5.933,5.933,0,0,0,3.855-1.441A3.5,3.5,0,0,1,4.67,14.441a.1.1,0,0,1,.016-.089.075.075,0,0,1,.075-.029,2.822,2.822,0,0,0,1.118.018,3.85,3.85,0,0,1-2.365-3.686v-.049a.1.1,0,0,1,.04-.078.071.071,0,0,1,.079,0,2.937,2.937,0,0,0,1.174.435A4.088,4.088,0,0,1,3.542,7.943,4.3,4.3,0,0,1,4,6a.08.08,0,0,1,.063-.045.074.074,0,0,1,.069.034,8.956,8.956,0,0,0,6.606,3.9,4.461,4.461,0,0,1-.065-.76,3.641,3.641,0,0,1,3.365-3.859,3.187,3.187,0,0,1,2.425,1.181,6.015,6.015,0,0,0,2.017-.893.072.072,0,0,1,.091.007.1.1,0,0,1,.026.1A3.885,3.885,0,0,1,17.412,7.57a5.872,5.872,0,0,0,1.516-.527.074.074,0,0,1,.094.025.1.1,0,0,1,.005.111A7.345,7.345,0,0,1,17.4,9.122Z" transform="translate(0 0)" fill="#fff"/>
</svg>
